<?xml version="1.0" encoding="utf-8"?>
<!-- Generator: Adobe Illustrator 26.0.1, SVG Export Plug-In . SVG Version: 6.00 Build 0)  -->
<svg version="1.1" id="Слой_1" xmlns="http://www.w3.org/2000/svg" xmlns:xlink="http://www.w3.org/1999/xlink" x="0px" y="0px"
	 viewBox="0 0 1920 1080" style="enable-background:new 0 0 1920 1080;" xml:space="preserve">
<style type="text/css">
	.st0{fill:none;}
</style>
<image style="display:none;overflow:visible;enable-background:new    ;" width="444" height="88" xlink:href="1235.jpg"  transform="matrix(1.8423 0 0 2.3523 572.5532 594.617)">
</image>
<g>
	
		<image style="overflow:visible;enable-background:new    ;" width="345" height="202" xlink:href="70153071.png"  transform="matrix(1.0089 0 0 0.9978 805.239 559)">
	</image>
	
		<image style="overflow:visible;enable-background:new    ;" width="344" height="283" xlink:href="70153073.png"  transform="matrix(0.6661 0 0 0.647 601 550)">
	</image>
	<g>
		<path d="M1172.3,647.9V662h-36.4v-14h36.4V647.9z"/>
		<path d="M1250.4,688.4c-3.8,1.9-12.6,4-24,4c-32.3,0-48.9-19.9-48.9-46.2c0-31.5,22.7-49,51-49c10.9,0,19.2,2.2,23,4.1l-4.2,16.6
			c-4.2-1.8-10.2-3.4-17.7-3.4c-16.8,0-29.8,10-29.8,30.5c0,18.5,11.1,30.1,29.9,30.1c6.4,0,13.4-1.4,17.6-3L1250.4,688.4z"/>
		<path d="M1314.8,652h-34.4v22h38.4v17h-59.7v-92h57.6v17h-36.4v19h34.4L1314.8,652L1314.8,652z"/>
		<path d="M1328,599.9c6.6-1.1,15.9-1.9,28.9-1.9c13.2,0,22.7,2.5,28.9,7.4c6.1,4.7,10.2,12.3,10.2,21.4s-3.1,16.7-8.7,21.9
			c-7.3,6.7-18.2,9.7-30.8,9.7c-2.8,0-5.3-0.1-7.3-0.4v33H1328L1328,599.9L1328,599.9z M1349.2,641.8c1.8,0.4,4,0.5,7.1,0.5
			c11.2,0,18.1-5.6,18.1-15.1c0-8.5-6-13.6-16.5-13.6c-4.2,0-7.2,0.4-8.7,0.8L1349.2,641.8L1349.2,641.8z"/>
		<path d="M1404.7,600c5.6-1.1,16.8-1.9,27.2-1.9c12.8,0,20.7,1.2,27.5,5.2c6.5,3.4,11.2,9.7,11.2,18.1c0,8.2-4.8,15.9-15.3,19.7
			v0.3c10.6,2.9,18.6,10.8,18.6,22.7c0,8.4-3.8,14.9-9.7,19.6c-6.8,5.3-18.1,8.4-36.6,8.4c-10.4,0-18.1-0.7-22.8-1.4V600H1404.7z
			 M1425,635h6.9c11.1,0,17.1-4.5,17.1-11.4c0-7-5.4-10.7-15-10.7c-4.6,0-7.2,0.3-9,0.5L1425,635L1425,635z M1425,676
			c2.1,0.3,4.6,0.3,8.2,0.3c9.6,0,18-3.6,18-13.3c0-9.3-8.5-13-19-13h-7.2L1425,676L1425,676z"/>
		<path d="M1501.9,599v27.3c0,14.8-0.3,29.4-1.1,41.7h0.5c4.9-10.8,11.3-22.9,16.8-32.8l20.4-36.2h22v92h-19.2v-27.2
			c0-14.2,0.3-26.8,1.5-38.8h-0.4c-4.2,11-10.1,23.1-15.6,32.8L1508,691h-25.3v-92H1501.9z"/>
		<path d="M1642.3,688.4c-3.8,1.9-12.6,4-24,4c-32.3,0-48.9-19.9-48.9-46.2c0-31.5,22.7-49,51-49c10.9,0,19.2,2.2,23,4.1l-4.2,16.6
			c-4.2-1.8-10.2-3.4-17.7-3.4c-16.8,0-29.8,10-29.8,30.5c0,18.5,11.1,30.1,29.9,30.1c6.4,0,13.4-1.4,17.6-3L1642.3,688.4z"/>
	</g>
	<path d="M1723,615.4"/>
	<rect x="1150" y="635" class="st0" width="526.8" height="5"/>
</g>
</svg>
